{"title":"James Bond - 007 - Casino Royale - 2007","uid":5596467,"size":743752693,"categoryP":"video","categoryS":"movies","magnet":"?xt=urn:btih:f8c4a22328e0a7da2ea1b2a6736da341724dc0f6&amp;dn=James+Bond+-+007+-+Casino+Royale+-+2007&amp;tr=udp%3A%2F%2Ftracker.openbittorrent.com%3A80&amp;tr=udp%3A%2F%2Fopen.demonii.com%3A1337&amp;tr=udp%3A%2F%2Ftracker.coppersurfer.tk%3A6969&amp;tr=udp%3A%2F%2Fexodus.desync.com%3A6969","seeders":1,"leechers":0,"uploader":"YoCkNeR-BeNzO","files":2,"time":1275008225,"description":"James Bond goes on his first ever mission as a 00. Le Chiffre is a banker to the world's terrorists. He is participating in a poker game at Montenegro, where he must win back his money, in order to stay safe among the terrorist market. The boss of MI6, known simply as M sends Bond, along with Vesper Lynd to attend this game and prevent Le Chiffre from winning. Bond, using help from Felix Leiter, Mathis and having Vesper pose as his wife, enters the most important poker game in his already dangerous career. But if Bond defeats Le Chiffre, will he and Vesper Lynd remain safe? \n\n\nFormat : AVI\nFormat/Info : Audio Video Interleave\nFile size : 709 MiB\nDuration : 2h 18mn\nOverall bit rate : 716 Kbps\nWriting application : MEncoder SVN-r29352(20090610-gcc4.3.3)\nWriting library : MPlayer\n\nVideo\nFormat : avc1\nCodec ID : avc1\nDuration : 2h 18mn\nBit rate : 576 Kbps\nWidth : 480 pixels\nHeight : 360 pixels\nDisplay aspect ratio : 4:3\nFrame rate : 25.000 fps\nBits/(Pixel*Frame) : 0.133\nStream size : 570 MiB (80%)\n\nAudio\nID : 1\nFormat : MPEG Audio\nFormat version : Version 1\nFormat profile : Layer 3\nMode : Joint stereo\nFormat_Settings_ModeExtension : MS Stereo\nCodec ID : 55\nCodec ID/Hint : MP3\nDuration : 2h 18mn\nBit rate mode : Constant\nBit rate : 128 Kbps\nChannel(s) : 2 channels\nSampling rate : 44.1 KHz\nStream size : 127 MiB (18%)\nAlignment : Aligned on interleaves\nInterleave, duration : 26 ms (0.65 video frame)\nInterleave, preload duration : 522 ms\nWriting library : LAME3.98","torrent":{"xt":"urn:btih:f8c4a22328e0a7da2ea1b2a6736da341724dc0f6","amp;dn":"James+Bond+-+007+-+Casino+Royale+-+2007","amp;tr":["udp%3A%2F%2Ftracker.openbittorrent.com%3A80","udp%3A%2F%2Fopen.demonii.com%3A1337","udp%3A%2F%2Ftracker.coppersurfer.tk%3A6969","udp%3A%2F%2Fexodus.desync.com%3A6969"],"infoHash":"f8c4a22328e0a7da2ea1b2a6736da341724dc0f6","infoHashBuffer":{"type":"Buffer","data":[248,196,162,35,40,224,167,218,46,161,178,166,115,109,163,65,114,77,192,246]},"announce":[],"urlList":[]}}